

<svg xmlns="http://www.w3.org/2000/svg" viewBox="21 28 61 42"><path fill="#00ffff" d="M80.64 48.01c-.06 4.24-.73 8.35-2.45 12.25-.44 1-.95 1.97-1.5 2.92-.07.12-.09.33-.27.3-.2-.04-.17-.25-.19-.41-.55-3.6-1.28-7.16-2.37-10.63-.81-2.56-1.71-5.1-3.32-7.3-.63-.87-1.35-1.68-2.36-2.15-.26-.12-.49-.19-.47.24.11 2.97-1.26 5.33-3.09 7.49-1.54 1.83-3.35 3.37-5.31 4.73-.39.27-.48.14-.62-.24-1.01-2.89-2.17-5.71-3.93-8.25-.59-.85-1.22-1.66-1.95-2.41-2.46-2.52-5.2-3.08-8.49-1.8-4.33 1.69-6.96 4.89-8.31 9.24-.22.71-.38 1.43-.58 2.21-2.65-1.3-4.55-3.16-5.14-6.23-.84 1.39-1.27 2.79-1.61 4.22-.55 2.29-.82 4.71-.85 7.06-.03 1.83.07 3.65.11 5.49-.01-.27-.39-.75-.51-.99-.18-.37-.36-.74-.54-1.12C24.3 57.05 22.07 50.8 22.39 44.53c.15-2.96.87-5.76 2.63-8.21 1.17-1.63 2.69-2.84 4.5-3.7.25-.12.55-.16.77-.44-1.18-.78-2.43-.57-3.66-.32-.93.19-1.84.46-2.81.71 0-.36.2-.6.35-.85 1.89-3.14 4.7-5.05 8.18-6.02 3.36-.94 6.77-.98 10.2-.45.46.07.88.06 1.31-.17 7.04-3.8 14.23-3.81 21.39-.49 6.93 3.21 11.68 8.53 14.26 15.73C80.41 42.8 80.67 45.38 80.64 48.01zM64.51 56.23c-4.61 0-8.53 3.05-9.84 7.24-1.48-.73-3.01-.71-4.49.07-1.29-4.22-5.22-7.31-9.86-7.31-5.68 0-10.3 4.62-10.3 10.3 0 5.68 4.62 10.3 10.3 10.3 5.68 0 10.3-4.62 10.3-10.3 0-.5-.04-.99-.11-1.47 1.29-.82 2.52-.85 3.81-.09-.08.51-.12 1.03-.12 1.56 0 5.68 4.62 10.3 10.3 10.3s10.3-4.62 10.3-10.3C74.81 60.86 70.19 56.23 64.51 56.23zM40.32 75.35c-4.86 0-8.81-3.95-8.81-8.81 0-4.86 3.95-8.81 8.81-8.81s8.81 3.95 8.81 8.81C49.13 71.4 45.18 75.35 40.32 75.35zM64.51 75.35c-4.86 0-8.81-3.95-8.81-8.81 0-4.86 3.95-8.81 8.81-8.81s8.81 3.95 8.81 8.81C73.32 71.4 69.37 75.35 64.51 75.35zM46.03 51.68l2.44 4.84-4.8-5.21 3.43-1.57L44.1 45.5l5 4.4L46.03 51.68z"/></svg>